<svg width="20" height="20" viewBox="0 0 20 20" fill="none" xmlns="http://www.w3.org/2000/svg">
<path d="M18.4743 11.4813H18.0306V10.9936C18.0306 10.6358 17.9183 10.3041 17.7276 10.0314C18.0776 9.19286 18.2155 8.40208 18.1722 7.49598C18.112 6.23797 17.6341 5.05473 16.8265 4.16422C15.9973 3.24981 14.9113 2.74622 13.7686 2.74622C12.0247 2.74622 10.597 3.82661 10.0063 4.35161C9.4325 3.82161 8.04469 2.74622 6.23137 2.74622C5.08875 2.74622 4.00273 3.24981 3.17348 4.16422C2.36586 5.05477 1.88797 6.23801 1.82777 7.49606C1.78453 8.40219 1.92238 9.19301 2.27223 10.0316C2.08164 10.3043 1.96938 10.6359 1.96938 10.9936V11.4813H1.52566C0.684414 11.4813 0 12.1679 0 13.0118C0 13.8558 0.684414 14.5424 1.52566 14.5424H1.96938V15.0301C1.96938 15.9565 2.72055 16.7102 3.64391 16.7102C4.05008 16.7102 4.42285 16.5643 4.71309 16.322C4.98793 16.8738 5.55625 17.2538 6.21172 17.2538C7.13508 17.2538 7.88625 16.5001 7.88625 15.5737V15.4816C8.96738 16.2525 9.77934 16.8002 9.78879 16.8065C9.85477 16.851 9.9309 16.8732 10.007 16.8732C10.0832 16.8732 10.1593 16.851 10.2252 16.8066C10.2346 16.8002 11.0396 16.2575 12.1136 15.4914V15.5738C12.1136 16.5002 12.8648 17.2538 13.7882 17.2538C14.4436 17.2538 15.012 16.8738 15.2868 16.3221C15.5771 16.5643 15.9498 16.7102 16.356 16.7102C17.2793 16.7102 18.0305 15.9566 18.0305 15.0302V14.5425H18.4742C19.3155 14.5425 19.9999 13.8559 19.9999 13.0119C20 12.1679 19.3156 11.4813 18.4743 11.4813ZM2.60816 7.53336C2.71383 5.32454 4.33918 3.5275 6.23137 3.5275C8.22906 3.5275 9.69383 5.1402 9.70793 5.15602C9.78059 5.2379 9.88453 5.28532 9.99398 5.28708C10.1041 5.2893 10.2088 5.24434 10.2841 5.16485C10.2996 5.14848 11.8564 3.5275 13.7686 3.5275C15.6607 3.5275 17.2861 5.32454 17.3918 7.53336C17.4251 8.2302 17.3343 8.84926 17.1008 9.48942C16.8763 9.37708 16.6235 9.31352 16.3561 9.31352C15.9499 9.31352 15.5771 9.45946 15.2869 9.70168C15.0121 9.14993 14.4438 8.76993 13.7883 8.76993C12.8649 8.76993 12.1138 9.5236 12.1138 10.45V11.4813H7.88629V10.45C7.88629 9.5236 7.13512 8.76993 6.21176 8.76993C5.55633 8.76993 4.98797 9.14993 4.71312 9.70168C4.42285 9.45946 4.05008 9.31352 3.64395 9.31352C3.37645 9.31352 3.12359 9.37711 2.89906 9.4895C2.66566 8.8493 2.57488 8.2302 2.60816 7.53336ZM7.88629 12.2625H12.1138V13.7611H7.88629V12.2625ZM1.52566 13.7612C1.1152 13.7612 0.78125 13.425 0.78125 13.0118C0.78125 12.5987 1.1152 12.2625 1.52566 12.2625H1.96938V13.7611H1.52566V13.7612ZM3.64391 15.929C3.15137 15.929 2.75063 15.5257 2.75063 15.0301V10.9936C2.75063 10.4979 3.15137 10.0947 3.64391 10.0947C4.13645 10.0947 4.53719 10.4979 4.53719 10.9936V15.0301C4.53719 15.5257 4.13648 15.929 3.64391 15.929ZM7.10504 15.5737C7.10504 16.0693 6.7043 16.4725 6.21176 16.4725C5.71922 16.4725 5.31848 16.0693 5.31848 15.5737V10.45C5.31848 9.95442 5.71922 9.55122 6.21176 9.55122C6.7043 9.55122 7.10504 9.95442 7.10504 10.45V15.5737ZM10.0071 16.0102C9.63969 15.7591 8.84609 15.2121 7.91715 14.5424H12.0962C11.1681 15.2121 10.3745 15.7592 10.0071 16.0102ZM14.6816 15.5737C14.6816 16.0693 14.2808 16.4725 13.7883 16.4725C13.2957 16.4725 12.895 16.0693 12.895 15.5737V10.45C12.895 9.95442 13.2957 9.55122 13.7883 9.55122C14.2808 9.55122 14.6816 9.95442 14.6816 10.45V15.5737ZM17.2494 15.0301C17.2494 15.5257 16.8486 15.929 16.3561 15.929C15.8636 15.929 15.4628 15.5257 15.4628 15.0301V10.9936C15.4628 10.4979 15.8636 10.0947 16.3561 10.0947C16.8486 10.0947 17.2494 10.4979 17.2494 10.9936V15.0301ZM18.4743 13.7612H18.0306V12.2625H18.4743C18.8848 12.2625 19.2188 12.5986 19.2188 13.0118C19.2188 13.425 18.8848 13.7612 18.4743 13.7612Z" fill="white" fill-opacity="0.8"/>
</svg>
